<svg width="240" height="180" viewBox="0 0 240 180" fill="none" xmlns="http://www.w3.org/2000/svg">
  <defs>
    <linearGradient id="gold" x1="26" y1="28" x2="112" y2="95" gradientUnits="userSpaceOnUse">
      <stop stop-color="#D9C37A"/>
      <stop offset="1" stop-color="#B89642"/>
    </linearGradient>
    <linearGradient id="green" x1="18" y1="116" x2="82" y2="168" gradientUnits="userSpaceOnUse">
      <stop stop-color="#67C56A"/>
      <stop offset="1" stop-color="#3F9E52"/>
    </linearGradient>
    <linearGradient id="blueMain" x1="103" y1="25" x2="189" y2="148" gradientUnits="userSpaceOnUse">
      <stop stop-color="#1C2D78"/>
      <stop offset="0.58" stop-color="#2E66B7"/>
      <stop offset="1" stop-color="#123A89"/>
    </linearGradient>
    <linearGradient id="blueSmall" x1="164" y1="116" x2="225" y2="170" gradientUnits="userSpaceOnUse">
      <stop stop-color="#11296B"/>
      <stop offset="1" stop-color="#336EBC"/>
    </linearGradient>
    <filter id="shadow" x="0" y="0" width="240" height="180" filterUnits="userSpaceOnUse" color-interpolation-filters="sRGB">
      <feOffset dy="2"/>
      <feGaussianBlur stdDeviation="1.5"/>
      <feColorMatrix type="matrix" values="0 0 0 0 0.0156863 0 0 0 0 0.0627451 0 0 0 0 0.168627 0 0 0 0.22 0"/>
      <feBlend in2="SourceGraphic" result="shape"/>
    </filter>
  </defs>
  <g filter="url(#shadow)">
    <path d="M82 25C86.6 25 90.9 27.2 93.5 31L112 57C114.4 60.5 114.3 65.2 111.8 68.6L97 88.2C94.2 92 89.8 94.2 85.1 94.2H29.4C24.7 94.2 22.1 88.8 24.9 84.8L63.6 31C67.1 26.2 72.3 25 82 25Z" fill="url(#gold)"/>
    <path d="M43.4 106H79.7C84.3 106 86.3 111.8 83 115L54.7 144C51.9 146.9 48 148.6 43.9 148.6H8.3C3.9 148.6 1.8 143.3 4.8 140.2L31.4 111.2C34.5 107.9 38.8 106 43.4 106Z" fill="url(#green)"/>
    <path d="M151.7 25C156.5 25 160.9 27.3 163.5 31.2L192.4 73.2C194.9 76.9 194.7 81.9 191.8 85.3L176 103.8C173.2 107 169.2 108.9 164.9 108.9H153.4C149.3 108.9 145.4 110.7 142.7 113.8L121.1 138.7C115.3 145.4 104.5 145.4 98.7 138.7L81.7 119.1C78.8 115.8 78.7 110.8 81.3 107.3L126.1 31C128.8 27.2 133.1 25 137.8 25H151.7Z" fill="url(#blueMain)"/>
    <path d="M174.9 106H215.5C220.1 106 224.3 108 227.2 111.5L235.8 122.1C239.2 126.3 236.2 132.5 230.8 132.5H211.4C207.4 132.5 203.6 130.8 200.9 127.9L190.2 116.3C185.8 111.5 179.5 108.4 172.8 107.7C173.5 106.6 174.1 106 174.9 106Z" fill="#0F2A6F"/>
    <path d="M184.2 119.7C186.9 116.8 190.7 115.2 194.7 115.2H230.7C235.2 115.2 237.4 120.6 234.4 123.8L210 148.1C207.1 151 203.1 152.6 199 152.6H183.6C179.6 152.6 175.8 151 173.1 148.2L160.1 134.3C156.5 130.4 159.3 124 164.6 124H176.1C179.2 124 182.1 122.5 184.2 119.7Z" fill="url(#blueSmall)"/>
  </g>
</svg>
